<svg width="800" height="800" viewBox="0 0 800 800" fill="none" xmlns="http://www.w3.org/2000/svg">
<rect width="800" height="800" fill="white"/>
<path d="M354.763 404.308L355.27 406.756L354.763 404.308ZM364.066 658.441C365.244 657.721 365.616 656.182 364.896 655.004L353.163 635.805C352.443 634.627 350.905 634.256 349.726 634.976C348.548 635.696 348.177 637.234 348.897 638.412L359.326 655.478L342.26 665.907C341.082 666.627 340.711 668.166 341.431 669.344C342.151 670.522 343.689 670.893 344.868 670.174L364.066 658.441ZM152.894 157.804C248.221 152.814 344.357 158.43 425.945 171.511C507.634 184.608 574.404 205.137 611.249 229.761C629.71 242.1 640.13 255.111 641.776 268.265C643.403 281.263 636.56 295.437 617.929 310.439C599.319 325.424 569.377 340.853 526.002 356.267C482.662 371.667 426.062 386.999 354.256 401.86L355.27 406.756C427.214 391.867 484.051 376.48 527.676 360.978C571.265 345.489 601.816 329.833 621.065 314.333C640.293 298.851 648.677 283.142 646.738 267.644C644.817 252.301 632.879 238.204 614.027 225.604C576.247 200.354 508.579 179.696 426.737 166.574C344.794 153.436 248.305 147.802 152.632 152.811L152.894 157.804ZM354.256 401.86C271.11 419.067 215.203 439.992 181.847 462.744C165.155 474.13 153.963 486.073 147.908 498.383C141.821 510.757 140.996 523.365 144.811 535.819C152.37 560.499 178.018 584.215 215.713 605.16C253.543 626.181 304.031 644.703 362.176 658.738L363.349 653.877C305.494 639.913 255.462 621.528 218.141 600.79C180.685 579.976 156.553 557.082 149.591 534.355C146.146 523.105 146.875 511.811 152.395 500.59C157.946 489.305 168.412 477.961 184.665 466.874C217.2 444.682 272.333 423.92 355.27 406.756L354.256 401.86Z" fill="#0A0931"/>
<circle cx="149" cy="156.5" r="8" fill="#0A0931"/>
<circle cx="206" cy="146.5" r="40" fill="white" fill-opacity="0.6"/>
<path d="M180 193.622V113.803H233.213V193.622H180Z" fill="#E3D7B1"/>
<path d="M180 109.5V113.803H219.909V104L180 109.5Z" fill="#7D684D"/>
<circle cx="638" cy="278.5" r="70" fill="white" fill-opacity="0.6"/>
<path d="M657.5 210.5L638 222V274H692.5L657.5 210.5Z" fill="url(#paint0_linear_101_120)"/>
<path d="M618.5 210.5L638 222V274L583 265L618.5 210.5Z" fill="url(#paint1_linear_101_120)"/>
<path d="M638 175C631.833 178.667 619.3 186.1 618.5 186.5L638 198L657.5 186.5L638 175Z" fill="#D9D9D9"/>
<path d="M618.5 210.5V186.5L638 198V222L618.5 210.5Z" fill="#9B9B9B"/>
<path d="M618.5 210.5V186.5L638 198V222L618.5 210.5Z" fill="#9B9B9B"/>
<path d="M618.5 210.5V186.5L638 198V222L618.5 210.5Z" fill="#9B9B9B"/>
<path d="M657.5 210.5V186.5L638 198V222L657.5 210.5Z" fill="#F1F1F1"/>
<path d="M583 264.921L638 274.088H693V347.421H638L583 338.255V264.921Z" fill="#E3D7B1"/>
<path d="M638 279.944V342.249" stroke="#8E8E8E" stroke-width="0.25" stroke-linecap="round"/>
<path d="M686.889 255.5H644.111V338H686.889V255.5Z" fill="#7D684D"/>
<rect width="59" height="118" rx="5" transform="matrix(-1 0 0 1 504 578.5)" fill="#0A0931"/>
<path d="M451.5 688.5H497.5C498.881 688.5 500 687.381 500 686V589C500 587.619 498.881 586.5 497.5 586.5H484.275C484.275 588.512 482.644 590.143 480.632 590.143H468.368C466.356 590.143 464.725 588.512 464.725 586.5H451.5C450.119 586.5 449 587.619 449 589V686C449 687.381 450.119 688.5 451.5 688.5Z" fill="white"/>
<rect x="481" y="610.5" width="14" height="14" fill="#D9E4F6"/>
<rect x="454" y="617.5" width="18" height="1" fill="#D9E4F6"/>
<rect x="454" y="619.5" width="20" height="1" fill="#D9E4F6"/>
<rect x="454" y="621.5" width="14" height="1" fill="#D9E4F6"/>
<rect x="454" y="612.5" width="21" height="3" fill="#D9E4F6"/>
<rect x="481" y="628.5" width="14" height="14" fill="#D9E4F6"/>
<rect x="454" y="637.5" width="10" height="1" fill="#D9E4F6"/>
<rect x="454" y="632.5" width="21" height="3" fill="#D9E4F6"/>
<rect x="481" y="646.5" width="14" height="14" fill="#D9E4F6"/>
<rect x="454" y="653.5" width="18" height="1" fill="#D9E4F6"/>
<rect x="454" y="655.5" width="20" height="1" fill="#D9E4F6"/>
<rect x="454" y="657.5" width="14" height="1" fill="#D9E4F6"/>
<rect x="454" y="648.5" width="21" height="3" fill="#D9E4F6"/>
<rect x="481" y="664.5" width="14" height="14" fill="#D9E4F6"/>
<rect x="454" y="672.5" width="16" height="1" fill="#D9E4F6"/>
<rect x="454" y="674.5" width="14" height="1" fill="#D9E4F6"/>
<rect x="454" y="667.5" width="21" height="3" fill="#D9E4F6"/>
<rect x="481" y="682.5" width="14" height="6" fill="#D9E4F6"/>
<rect x="454" y="684.5" width="21" height="3" fill="#D9E4F6"/>
<rect x="454" y="594.5" width="35" height="4" fill="#D9E4F6"/>
<rect x="454" y="600.5" width="29" height="2" fill="#D9E4F6"/>
<circle cx="225" cy="450" r="50" fill="white" fill-opacity="0.6"/>
<path fill-rule="evenodd" clip-rule="evenodd" d="M250.6 409.092C250.6 407.937 251.528 407 252.672 407H265.929C267.073 407 268 407.937 268 409.092V422.483C268 423.639 267.073 424.576 265.929 424.576C264.785 424.576 263.857 423.639 263.857 422.483V411.185H252.672C251.528 411.185 250.6 410.248 250.6 409.092Z" fill="#D6D5FF"/>
<path fill-rule="evenodd" clip-rule="evenodd" d="M198.4 409.092C198.4 407.937 197.472 407 196.328 407H183.071C181.927 407 181 407.937 181 409.092V422.483C181 423.639 181.927 424.576 183.071 424.576C184.215 424.576 185.143 423.639 185.143 422.483V411.185H196.328C197.472 411.185 198.4 410.248 198.4 409.092Z" fill="#D6D5FF"/>
<path fill-rule="evenodd" clip-rule="evenodd" d="M198.4 491.908C198.4 493.063 197.472 494 196.328 494H183.071C181.927 494 181 493.063 181 491.908V478.517C181 477.361 181.927 476.424 183.071 476.424C184.215 476.424 185.143 477.361 185.143 478.517V489.815H196.328C197.472 489.815 198.4 490.752 198.4 491.908Z" fill="#D6D5FF"/>
<path fill-rule="evenodd" clip-rule="evenodd" d="M250.6 491.908C250.6 493.063 251.528 494 252.672 494H265.929C267.073 494 268 493.063 268 491.908V478.517C268 477.361 267.073 476.424 265.929 476.424C264.785 476.424 263.857 477.361 263.857 478.517V489.815H252.672C251.528 489.815 250.6 490.752 250.6 491.908Z" fill="#D6D5FF"/>
<rect x="198" y="424" width="24.4528" height="24.4528" fill="#0A0931"/>
<rect x="227.547" y="424" width="24.4528" height="24.4528" fill="#0A0931"/>
<rect x="198" y="453.547" width="24.4528" height="24.4528" fill="#0A0931"/>
<rect x="227.547" y="453.547" width="24.4528" height="24.4528" fill="#0A0931"/>
<defs>
<linearGradient id="paint0_linear_101_120" x1="646.5" y1="210.5" x2="675.5" y2="264.5" gradientUnits="userSpaceOnUse">
<stop stop-color="#F1FF99"/>
<stop offset="0.359375" stop-color="#F4FFAE"/>
<stop offset="1" stop-color="white" stop-opacity="0"/>
</linearGradient>
<linearGradient id="paint1_linear_101_120" x1="629.5" y1="210.5" x2="600.5" y2="264.5" gradientUnits="userSpaceOnUse">
<stop stop-color="#F1FF99"/>
<stop offset="0.4375" stop-color="#F6FFBE"/>
<stop offset="1" stop-color="white" stop-opacity="0"/>
</linearGradient>
</defs>
</svg>
