<svg width="64" height="48" viewBox="0 0 64 48" fill="none" xmlns="http://www.w3.org/2000/svg">
    <path d="M13.9999 19.9999C13.6043 19.9999 13.2176 20.1172 12.8887 20.3369C12.5598 20.5567 12.3035 20.8691 12.1521 21.2345C12.0007 21.6 11.9611 22.0021 12.0383 22.3901C12.1155 22.778 12.306 23.1344 12.5857 23.4141C12.8654 23.6938 13.2217 23.8843 13.6097 23.9615C13.9977 24.0386 14.3998 23.999 14.7652 23.8476C15.1307 23.6963 15.4431 23.4399 15.6628 23.111C15.8826 22.7821 15.9999 22.3954 15.9999 21.9999C15.9999 21.4694 15.7892 20.9607 15.4141 20.5857C15.039 20.2106 14.5303 19.9999 13.9999 19.9999ZM7.41988 4.57988C7.23341 4.39341 7.01202 4.24548 6.76838 4.14456C6.52474 4.04364 6.2636 3.9917 5.99988 3.9917C5.73616 3.9917 5.47503 4.04364 5.23138 4.14456C4.98774 4.24548 4.76636 4.39341 4.57988 4.57988C4.20327 4.95649 3.9917 5.46728 3.9917 5.99988C3.9917 6.53249 4.20327 7.04328 4.57988 7.41988L9.23988 11.9999C7.78368 12.1858 6.44615 12.8991 5.4805 14.0048C4.51484 15.1105 3.98806 16.5319 3.99988 17.9999V29.9999C3.99988 31.5912 4.63202 33.1173 5.75724 34.2425C6.88246 35.3677 8.40858 35.9999 9.99988 35.9999H11.9999V41.9999C11.9999 42.5303 12.2106 43.039 12.5857 43.4141C12.9607 43.7892 13.4694 43.9999 13.9999 43.9999H33.9999C34.5303 43.9999 35.039 43.7892 35.4141 43.4141C35.7892 43.039 35.9999 42.5303 35.9999 41.9999V38.8199L40.5799 43.4199C40.7658 43.6073 40.987 43.7561 41.2307 43.8577C41.4744 43.9592 41.7359 44.0115 41.9999 44.0115C42.2639 44.0115 42.5253 43.9592 42.769 43.8577C43.0128 43.7561 43.234 43.6073 43.4199 43.4199C43.6073 43.234 43.7561 43.0128 43.8577 42.769C43.9592 42.5253 44.0115 42.2639 44.0115 41.9999C44.0115 41.7359 43.9592 41.4744 43.8577 41.2307C43.7561 40.987 43.6073 40.7658 43.4199 40.5799L7.41988 4.57988ZM11.9999 29.9999V31.9999H9.99988C9.46945 31.9999 8.96074 31.7892 8.58567 31.4141C8.2106 31.039 7.99988 30.5303 7.99988 29.9999V17.9999C7.99988 17.4694 8.2106 16.9607 8.58567 16.5857C8.96074 16.2106 9.46945 15.9999 9.99988 15.9999H13.1799L25.1799 27.9999H13.9999C13.4694 27.9999 12.9607 28.2106 12.5857 28.5857C12.2106 28.9607 11.9999 29.4694 11.9999 29.9999ZM31.9999 39.9999H15.9999V31.9999H29.1799L31.9999 34.8199V39.9999ZM37.9999 11.9999H35.9999V5.99988C35.9999 5.46945 35.7892 4.96074 35.4141 4.58567C35.039 4.2106 34.5303 3.99988 33.9999 3.99988H17.3199C16.7894 3.99988 16.2807 4.2106 15.9057 4.58567C15.5306 4.96074 15.3199 5.46945 15.3199 5.99988C15.3199 6.53032 15.5306 7.03902 15.9057 7.4141C16.2807 7.78917 16.7894 7.99988 17.3199 7.99988H31.9999V11.9999H25.3199C24.7894 11.9999 24.2807 12.2106 23.9057 12.5857C23.5306 12.9607 23.3199 13.4694 23.3199 13.9999C23.3199 14.5303 23.5306 15.039 23.9057 15.4141C24.2807 15.7892 24.7894 15.9999 25.3199 15.9999H37.9999C38.5303 15.9999 39.039 16.2106 39.4141 16.5857C39.7892 16.9607 39.9999 17.4694 39.9999 17.9999V29.9999C40.0108 30.0728 40.0108 30.147 39.9999 30.2199C39.9473 30.4773 39.9459 30.7425 39.9959 31.0004C40.0458 31.2583 40.1461 31.5039 40.291 31.7231C40.4358 31.9422 40.6225 32.1307 40.8402 32.2777C41.0579 32.4247 41.3025 32.5274 41.5599 32.5799H41.9599C42.4278 32.5893 42.8842 32.4344 43.2496 32.142C43.615 31.8497 43.8664 31.4384 43.9599 30.9799C44.0014 30.655 44.0148 30.3271 43.9999 29.9999V17.9999C43.9999 16.4086 43.3677 14.8825 42.2425 13.7572C41.1173 12.632 39.5912 11.9999 37.9999 11.9999Z" fill="#499660"/>
</svg>
