<svg width="64" height="48" viewBox="0 0 64 48" fill="none" xmlns="http://www.w3.org/2000/svg">
<path d="M24 4C18.8728 4.01462 13.947 5.99783 10.24 9.54V6C10.24 5.46957 10.0293 4.96086 9.65421 4.58579C9.27914 4.21071 8.77043 4 8.24 4C7.70957 4 7.20086 4.21071 6.82579 4.58579C6.45071 4.96086 6.24 5.46957 6.24 6V15C6.24 15.5304 6.45071 16.0391 6.82579 16.4142C7.20086 16.7893 7.70957 17 8.24 17H17.24C17.7704 17 18.2791 16.7893 18.6542 16.4142C19.0293 16.0391 19.24 15.5304 19.24 15C19.24 14.4696 19.0293 13.9609 18.6542 13.5858C18.2791 13.2107 17.7704 13 17.24 13H12.44C15.0116 10.3127 18.439 8.60531 22.1331 8.17134C25.8271 7.73737 29.557 8.60395 32.6813 10.6221C35.8056 12.6402 38.1293 15.6838 39.2527 19.2296C40.376 22.7753 40.229 26.6017 38.8368 30.0508C37.4447 33.4999 34.8943 36.3562 31.6243 38.1286C28.3543 39.901 24.569 40.4788 20.9191 39.7627C17.2693 39.0465 13.9829 37.0811 11.6252 34.2044C9.26743 31.3277 7.98557 27.7194 8 24C8 23.4696 7.78929 22.9609 7.41421 22.5858C7.03914 22.2107 6.53043 22 6 22C5.46957 22 4.96086 22.2107 4.58579 22.5858C4.21071 22.9609 4 23.4696 4 24C4 27.9556 5.17298 31.8224 7.37061 35.1114C9.56824 38.4004 12.6918 40.9638 16.3463 42.4776C20.0009 43.9913 24.0222 44.3874 27.9018 43.6157C31.7814 42.844 35.3451 40.9392 38.1421 38.1421C40.9392 35.3451 42.844 31.7814 43.6157 27.9018C44.3874 24.0222 43.9913 20.0009 42.4776 16.3463C40.9638 12.6918 38.4004 9.56824 35.1114 7.37061C31.8224 5.17298 27.9556 4 24 4ZM24 16C23.4696 16 22.9609 16.2107 22.5858 16.5858C22.2107 16.9609 22 17.4696 22 18V24C22 24.5304 22.2107 25.0391 22.5858 25.4142C22.9609 25.7893 23.4696 26 24 26H28C28.5304 26 29.0391 25.7893 29.4142 25.4142C29.7893 25.0391 30 24.5304 30 24C30 23.4696 29.7893 22.9609 29.4142 22.5858C29.0391 22.2107 28.5304 22 28 22H26V18C26 17.4696 25.7893 16.9609 25.4142 16.5858C25.0391 16.2107 24.5304 16 24 16Z" fill="#499660"/>
</svg>
